<mxfile host="app.diagrams.net" modified="2022-12-04T07:05:43.443Z" agent="5.0 (Macintosh; Intel Mac OS X 10_15_7) AppleWebKit/537.36 (KHTML, like Gecko) Chrome/107.0.0.0 Safari/537.36" version="20.6.0" etag="Vo6rBih1nSg93XH9NCvs" type="github">
  <diagram id="-veURGhPx9yt6eOxs2XO" name="第 1 页">
    <mxGraphModel dx="961" dy="658" grid="1" gridSize="10" guides="1" tooltips="1" connect="1" arrows="1" fold="1" page="1" pageScale="1" pageWidth="827" pageHeight="1169" background="#F1FAEE" math="0" shadow="0">
      <root>
        <mxCell id="0" />
        <mxCell id="1" parent="0" />
      </root>
    </mxGraphModel>
  </diagram>
</mxfile>
